<?xml version="1.0" encoding="UTF-8"?>
<svg version="1.1" xmlns="http://www.w3.org/2000/svg" width="512" height="512">
<path d="M0 0 C38.94 0 77.88 0 118 0 C118 123.42 118 246.84 118 374 C79.06 374 40.12 374 0 374 C0 250.58 0 127.16 0 0 Z " fill="#000000" transform="translate(197,69)"/>
<path d="M0 0 C38.94 0 77.88 0 118 0 C118 95.37 118 190.74 118 289 C79.06 289 40.12 289 0 289 C0 193.63 0 98.26 0 0 Z " fill="#000000" transform="translate(48,154)"/>
<path d="M0 0 C38.94 0 77.88 0 118 0 C118 66.99 118 133.98 118 203 C79.06 203 40.12 203 0 203 C0 136.01 0 69.02 0 0 Z " fill="#000000" transform="translate(346,240)"/>
</svg>
