<svg xmlns="http://www.w3.org/2000/svg" width="24" height="24"><path fill="#494A4A" fill-rule="evenodd" d="m17.76 6.927-3.131 3.177a1.038 1.038 0 0 1-1.471 0L10.602 7.51 7.9 10.26a.807.807 0 0 1-1.159 0 .848.848 0 0 1 0-1.183l3.131-3.174a1.035 1.035 0 0 1 1.471 0l2.547 2.59 2.712-2.75a.81.81 0 0 1 1.159 0 .85.85 0 0 1 0 1.184ZM16 17.2c0 .44-.44.8-1 .8-.55 0-1-.36-1-.8v-2.4c0-.44.45-.8 1-.8.56 0 1 .36 1 .8v2.4Zm-4-.033c0 .459-.44.833-1 .833-.55 0-1-.374-1-.833v-5.834c0-.458.45-.833 1-.833.56 0 1 .375 1 .833v5.834Zm-4 0c0 .459-.44.833-1 .833-.55 0-1-.374-1-.833v-3.334c0-.458.45-.833 1-.833.56 0 1 .375 1 .833v3.334Zm13.773-9.592a6.012 6.012 0 0 0-5.35-5.349 43.232 43.232 0 0 0-8.842 0 5.996 5.996 0 0 0-5.35 5.349 42.468 42.468 0 0 0 0 8.851 6.001 6.001 0 0 0 5.35 5.35 43.787 43.787 0 0 0 8.842 0 6.015 6.015 0 0 0 5.35-5.35c.3-2.95.3-5.9 0-8.851Z"/></svg>