<svg xmlns="http://www.w3.org/2000/svg" width="16" height="16"><path fill="#494A4A" fill-rule="evenodd" d="M8 3.5c2.593 0 4.95 1.539 6.379 4.04a.934.934 0 0 1 0 .92c-1.428 2.5-3.786 4.04-6.38 4.04-2.592 0-4.95-1.539-6.378-4.04a.934.934 0 0 1 0-.921C3.05 5.039 5.408 3.5 8 3.5Zm0 1.607C6.384 5.107 5.075 6.402 5.075 8c0 1.597 1.31 2.893 2.925 2.893 1.615 0 2.925-1.296 2.925-2.893 0-1.598-1.31-2.893-2.925-2.893Zm0 1.286c.897 0 1.625.72 1.625 1.607S8.897 9.607 8 9.607c-.898 0-1.625-.72-1.625-1.607 0-.125.014-.247.042-.363.09.027.184.041.283.041a.97.97 0 0 0 .933-1.244c.118-.027.24-.041.367-.041Z"/></svg>